<?xml version="1.0" encoding="utf-8"?>
<!-- Generator: Adobe Illustrator 19.0.0, SVG Export Plug-In . SVG Version: 6.00 Build 0)  -->
<svg version="1.1" id="Layer_1" xmlns="http://www.w3.org/2000/svg" xmlns:xlink="http://www.w3.org/1999/xlink" x="0px" y="0px"
	 viewBox="0 0 279.4 118.1" style="enable-background:new 0 0 279.4 118.1;" xml:space="preserve">
<style type="text/css">
	.st0{fill:#E79768;}
	.st1{fill:#232022;}
</style>
<g id="XMLID_1_">
	<path id="XMLID_115_" class="st0" d="M184.6,41.6c0-12.8,0.1-25.4-0.1-38c0-3,1.2-3.5,3.8-3.4c2.8,0.1,2.4,1.8,2.4,3.5
		c0,11.1,0,22.1,0,33.2c0,4.7,0.1,9.5,0,14.2c0,1.4,1,3.4-1.4,3.9c-1.9,0.4-3.5,0-4.9-1.7c-4.3-5.6-8.7-11.2-13.1-16.8
		c-5.6-7.2-11.2-14.3-16.8-21.5c-0.5-0.7-0.8-1.7-2.4-1.6c0,6.1,0,12.2,0,18.4c0,6.7-0.1,13.4,0,20.1c0,2.4-0.8,3.2-3.2,3.2
		c-2.5,0-3.1-1.1-3.1-3.4c0.1-15.8,0-31.6,0.1-47.4c0-1.4-0.9-3.5,1.2-4.1c2.1-0.6,4-0.1,5.5,1.9c3,4,6.1,7.9,9.2,11.8
		c6.8,8.7,13.6,17.4,20.4,26.2C182.8,40.8,183.1,41.6,184.6,41.6z"/>
	<path id="XMLID_112_" class="st0" d="M84.4,54.6c-5.1,0.7-8.7,0.9-12.2-2.5c-6.1-6-12.7-11.4-19.1-17.1c-0.7-0.6-1.3-2-2.5-1.3
		c-0.9,0.5-0.5,1.7-0.5,2.5c0,5.3-0.1,10.5,0,15.8c0.1,2.5-1,3.1-3.3,3.1c-2.2,0-3-0.8-2.9-3c0.1-16.3,0.1-32.6,0-49
		c0-2.2,0.8-3,3-3c6.3,0.1,12.6,0,19,0.1c8.5,0.1,14.8,6.3,15,14.6c0.2,8.7-6.1,15.5-14.7,15.8c-2.3,0.1-4.6,0-7,0
		c-0.2,0.3-0.3,0.7-0.5,1C67,39,75.4,46.5,84.4,54.6z M59.4,6.3C59.4,6.3,59.4,6.2,59.4,6.3c-2.2-0.1-4.5,0-6.7-0.1
		c-1.8-0.1-2.6,0.6-2.6,2.5c0.1,4.5,0,9,0,13.4c0,1.1,0.1,2.3,1.5,2.3c5.6-0.1,11.4,0.9,16.9-0.6c4.3-1.1,6.8-5.4,6.2-9.8
		c-0.5-4.1-3.9-7.4-8.2-7.8C64.1,6.1,61.8,6.3,59.4,6.3z"/>
	<path id="XMLID_108_" class="st0" d="M0.1,27.8c0-8,0.1-16-0.1-24.1C0,0.9,0.9,0,3.6,0.1c5.6,0.2,11.3,0,17,0.1
		C32,0.4,39.2,12.7,33.5,22.5c-1.7,2.9-2.1,4.4,0.6,7c4.7,4.6,5.4,10.4,2.8,16.4c-2.6,6-7.6,8.9-14.1,8.9c-6.7,0-13.4,0-20.1,0
		c-2,0-2.7-0.4-2.6-2.7C0.2,44.1,0.1,35.9,0.1,27.8C0.1,27.8,0.1,27.8,0.1,27.8z M15.3,48.9c2.5,0,5,0.2,7.5,0
		c5.6-0.4,9.3-4.3,9.1-9.4c-0.1-5-4.2-8.8-9.6-9c-2.5-0.1-5,0-7.5,0c-9,0-9,0-9,9.1C5.8,48.9,5.8,48.9,15.3,48.9z M5.8,15.2
		c0,2.4,0,4.7,0,7.1c0,1.4,0.5,2.3,2,2.2c4.5,0,9,0.2,13.4-0.2c4.5-0.4,8-4.5,8.2-8.8c0.2-4.4-2.9-8.1-7.6-9.2
		C19.6,5.8,17.4,6,15.1,6C5.8,5.9,5.8,5.9,5.8,15.2z"/>
	<path id="XMLID_105_" class="st0" d="M140.2,27.7c-0.1,15.4-12,27-27.6,26.9c-14.9-0.1-26.9-12.5-26.7-27.5
		c0.2-15.3,12.3-26.9,27.7-26.8C128.6,0.3,140.3,12.4,140.2,27.7z M113.1,48.5c11.6,0,21-9.5,21.1-21.1c0-11.6-9.4-21.1-21-21.2
		c-11.7-0.1-21.4,9.6-21.3,21.3C92,39.1,101.6,48.6,113.1,48.5z"/>
	<path id="XMLID_104_" class="st0" d="M205.4,48.7c10.1,0,19.2,0.1,28.3,0c2.7,0,3.8,0.8,3.6,3.6c-0.1,1.8-0.7,2.6-2.6,2.6
		c-11.7,0.1-23.4,0.2-35.2,0.3c-3.4,0-4.4-2.7-2-6.1c4.4-6.3,8.9-12.4,13.4-18.6c4.9-6.8,9.9-13.6,14.8-20.5c0.7-0.9,2-1.8,1.3-3.1
		c-0.7-1.2-2.2-0.6-3.3-0.6c-7.9,0-15.8-0.1-23.7,0c-2.4,0-3.6-0.5-3.6-3.2c0-2.8,1.5-2.9,3.5-2.8c10.9,0,21.9,0,32.8,0.1
		c1.4,0,3.5-0.9,4.3,0.9c0.8,1.9,0.1,3.8-1.2,5.5c-5.8,7.9-11.5,15.8-17.2,23.6C214.4,36.2,210.2,42,205.4,48.7z"/>
	<path id="XMLID_103_" class="st0" d="M243.1,27.3c0-7.8,0.1-15.5-0.1-23.3c-0.1-2.8,0.5-4,3.6-3.9c9.7,0.2,19.5,0.1,29.2,0
		c2.5,0,3.5,0.6,3.5,3.3c0,2.8-1.5,2.8-3.5,2.8c-7.6,0-15.3,0.1-22.9-0.1c-3-0.1-3.9,1-3.7,3.9c0.2,3.5,0.3,7.1,0,10.7
		c-0.2,3.3,1.1,4.1,4.1,4c4.9-0.2,9.7,0,14.6-0.1c2.1,0,3.4,0.2,3.5,2.9c0,2.8-1.2,3.3-3.6,3.2c-5.1-0.1-10.3,0.1-15.4-0.1
		c-2.4-0.1-3.3,0.8-3.2,3.2c0.1,3.7,0.3,7.4,0,11c-0.3,3.3,1.2,3.9,4.1,3.9c7.4-0.2,14.7,0,22.1-0.1c2.4,0,4,0.2,4,3.3
		c0,3.1-1.7,2.9-3.8,2.9c-9.6,0-19.2-0.1-28.8,0.1c-3.1,0.1-3.8-1-3.7-3.9C243.2,43.1,243.1,35.2,243.1,27.3z"/>
	<path id="XMLID_100_" class="st1" d="M279.4,95.3c0.1,4-0.5,7.9-1.9,11.6c-2.7,7.2-8.4,11.2-16,11.1c-7.5-0.1-13-3.9-15.5-11.2
		c-2.8-8.3-2.8-16.6,0.7-24.7c2.9-6.6,8.1-9.9,15.3-9.8c7.2,0.1,12.2,3.7,15,10.2C278.8,86.7,279.6,90.9,279.4,95.3z M274.3,95.3
		c0.1-3.3-0.4-7-2-10.4c-2-4.6-5.4-7.4-10.6-7.5c-5.2-0.1-8.7,2.8-10.6,7.4c-2.8,7-2.9,14.1,0,21.1c1.9,4.6,5.5,6.9,10.5,7
		c4.9,0,8.5-2.4,10.6-6.9C273.8,102.8,274.4,99.3,274.3,95.3z"/>
	<path id="XMLID_97_" class="st1" d="M202.3,96.4c0-5.9,0.7-10.5,2.8-14.7c3.1-6.3,8.2-9.5,15.2-9.4c6.8,0.1,11.9,3.4,14.6,9.6
		c3.8,8.6,3.8,17.4,0.3,26.1c-2.7,6.6-8.3,10.1-15.6,9.9c-7.2-0.1-12.2-3.6-15-10.2C202.8,103.8,202.3,99.5,202.3,96.4z M207.4,95.4
		c-0.3,3.7,0.4,7.3,2,10.7c2,4.4,5.4,6.7,10.1,6.9c4.9,0.1,8.7-2.1,10.7-6.6c3.2-7.3,3.2-14.8-0.1-22.1c-1.9-4.2-5.4-6.7-10.3-6.7
		c-4.9,0-8.2,2.5-10.2,6.8C207.9,87.7,207.1,91.4,207.4,95.4z"/>
	<path id="XMLID_96_" class="st1" d="M171.1,107.3c2.4,2.4,4.9,4.2,7.9,5.2c4,1.3,7.3,0.1,10-2.8c2.5-2.7,3.3-6,1.7-9.5
		c-1.7-3.8-4.8-5.9-9-6c-3.8,0-7.5,0.9-11.1,3.9c0-8.4,0-16.1,0-23.8c0-1.6,0.8-2,2.2-2c6.3,0,12.6,0.1,18.9,0
		c1.8,0,2.3,0.8,2.2,2.4c-0.1,1.5,0.1,2.9-2.1,2.9c-4.3-0.1-8.7,0.1-13-0.1c-2.7-0.1-3.5,0.9-3.2,3.4c0.2,1.8,0.2,3.7,0,5.5
		c-0.3,2.8,0.2,3.9,3.6,3.1c6.4-1.7,12.8,1.6,15.8,7.5c3,5.8,1.7,13-3,17.4c-4.7,4.4-12,5.1-17.6,1.9
		C170.9,114.1,169.7,111.4,171.1,107.3z"/>
	<path id="XMLID_95_" class="st1" d="M126.5,99.6c12.4-6.2,23.9-12,35.4-17.7c0.6-0.3,1.8-0.9,1.9,0.2c0.1,2.1,1.4,4.6-1.3,6
		c-2.5,1.4-5.2,2.6-7.8,3.9c-3.9,1.9-7.8,3.9-11.6,5.8c-0.8,0.4-1.9,0.6-2,1.7c0,1.2,1.2,1.3,1.9,1.7c5.9,3,11.7,6.1,17.7,8.7
		c3.1,1.4,3.5,3.4,3.3,6.2c-0.1,1.6-0.7,1.7-2,1.1C150.4,111.6,138.9,105.9,126.5,99.6z"/>
</g>
</svg>
