<?xml version="1.0" encoding="utf-8"?>
<!-- Generator: Adobe Illustrator 19.0.0, SVG Export Plug-In . SVG Version: 6.00 Build 0)  -->
<svg version="1.1" id="Layer_1" xmlns="http://www.w3.org/2000/svg" xmlns:xlink="http://www.w3.org/1999/xlink" x="0px" y="0px"
	 viewBox="0 0 465.3 299" style="enable-background:new 0 0 465.3 299;" xml:space="preserve">
<style type="text/css">
	.st0{fill:#9D1F21;}
	.st1{fill:#262122;}
</style>
<g id="Logo">
	<path id="XMLID_64_" class="st0" d="M70.3,208c0.4-0.3,0.7-0.7,1.4-0.4c4.3,2.4,9,3.9,13.5,5.6c3.4,1.3,6.8,2.8,10.3,3.6
		c3.2,0.8,6.3,1.9,9.5,2.7c3.4,0.9,7,1.4,10.3,3.1c1.6,0.8,3.6,0.8,5.5,1.1c2.4,3.2,5,6.1,7.6,9c4.7,5.1,10,9.4,15.6,13.4
		c7.2,5.2,15,9.6,23.1,13.2c18.5,8,37.8,11.9,58,11c12.2-0.5,24-3.1,35.5-7.1c10.5-3.6,20.8-7.6,30.5-13.1
		c6.2-3.5,12.2-7.3,16.9-12.9c0.6-0.7,1.3-0.6,2-0.6c25.2-0.1,50.5-0.2,75.7-0.2c2.9,0,4.6-0.9,6.3-3.1c5.5-7,17.2-5.5,21,2.5
		c0.9,1.8,1.9,3.6,1.6,5.8c-0.6,5.6-4.6,11.1-10.9,11.9c-5,0.7-9.3-0.9-12.3-5.1c-0.5-0.7-1-0.7-1.7-0.8c-15.1-0.6-30,0.7-44.7,4.2
		c-12.1,2.9-24,6.3-35.3,11.5c-8.4,3.8-16.3,8.5-23.4,14.5c-7.7,6.6-16.8,10.9-26.5,13.9c-11.1,3.4-22.4,5.2-33.9,6.2
		c-7.9,0.7-15.9,0.8-23.8,0.7c-10.5,0-20.8-1.7-30.9-4.2c-12.7-3.2-25-7.5-36.7-13.5c-8.1-4.1-15.8-8.9-23-14.5
		c-4.4-3.4-8.2-7.2-12.2-10.9c-4.4-4.1-7.8-9-11.5-13.7c-5.2-6.6-8.6-14.2-12.4-21.6C73.4,216.5,71.7,212.4,70.3,208z M401.8,235.2
		c-3.7,0-6.4,2.7-6.4,6.5c0,3.8,2.6,6.5,6.4,6.5c3.7,0.1,6.4-2.6,6.5-6.4C408.3,237.9,405.7,235.2,401.8,235.2z"/>
	<path id="XMLID_71_" class="st0" d="M96.7,152.5c0,2,0.1,4.1,0.1,6.1c-0.3,0.8-0.9,0.7-1.5,0.7c-11.7,0-23.3,0-35-0.1
		c-0.6-13-0.3-26.1,2.7-38.8c3.1-13,4.9-26.5,11-38.7c3.7-7.5,7.2-15.2,12.1-22c3.6-5,7.1-10.2,11.6-14.6c3.8-3.8,7.5-7.6,11.7-11
		c7.4-5.8,15.1-11.1,23.5-15.4c14-7.3,28.8-12.4,44.2-15.8c15.7-3.5,31.5-3.4,47.4-2.3c10.8,0.8,21.5,2.3,31.9,5.2
		c10.3,2.9,20,6.8,28.5,13.6c3.1,2.5,6,5.1,9.4,7.3c8.4,5.5,17.4,9.7,26.9,13.1c7.2,2.6,14.6,4.7,22.1,6.5
		c5.4,1.3,10.9,2.2,16.3,3.2c6.8,1.3,13.6,1.6,20.5,1.5c8.1,0,16.3,0,24.4,0.1c1.5,0,2.5-0.3,3.4-1.7c3.4-5.2,10.5-7,16.2-4.3
		c8.4,3.9,8.8,13.6,4.7,18.8c-5,6.2-15.2,6.5-19.9,0.5c-1.1-1.4-2.3-1.9-4-1.9c-31.3-0.1-62.6-0.2-93.9-0.3c-1.3,0-2.2-0.4-3.2-1.4
		c-6.4-7-14.4-11.5-22.8-15.6c-6.9-3.4-14.1-6.4-21.4-8.9c-7.5-2.6-15.1-5-23-6.4c-10.6-1.8-21.3-2.1-31.9-1.2
		c-0.6-0.3-1.5-0.3-1.5-1.5c0.1-4.4,0.1-8.9,0.1-13.3c0-2.4,0-2.4-2.4-2.4c-1.2,0-2.4,0-3.7,0c-1.2,0-2.3-0.1-3,1.4
		c-0.5,1.1-1.4,1.9-2.2,2.9c-1.3,1.6-3,2.9-4.1,4.5c-3.7,4.8-7.5,9.4-11.2,14.2c-0.9,0.2-1.8,0.4-2.6,0.8c-7,2.6-13.9,5.6-20.5,9.2
		c-9.1,5-17.5,11-25.3,17.8c-4,3.5-7.5,7.5-10.9,11.5c-4.9,5.6-8.7,12-12.5,18.4c-7.9,13.2-9.8,27.9-10.6,42.9
		c-1.9,2.5-3.8,5.1-5.3,7.9c-1,1.9-2.2,3.8-2.7,5.9c-0.3,1.3,0,2.3,1.7,2.2c1.2-0.1,2.4,0,3.6,0C96.4,151.1,96.8,151.5,96.7,152.5z
		 M418.4,49.9c-3.8,0-6.7,2.7-6.6,6.4c0.1,4.1,2.3,6.3,6.5,6.5c3.7,0.2,6.4-2.7,6.5-6.4C424.9,52.7,422.2,49.9,418.4,49.9z"/>
	<path id="XMLID_67_" class="st1" d="M60.3,159.2c11.7,0,23.3,0,35,0.1c0.6,0,1.3,0.1,1.5-0.7c0.1,0.9,0.8,0.7,1.4,0.7
		c2.1,0,4.3,0,6.4,0c90.7,0,181.4,0,272.1,0c1.6,0,2.7-0.4,3.9-1.6c3.1-3.2,6.1-6.3,9.5-9.2c2.4-2.1,4.6-4.3,6.9-6.5
		c0.8-0.8,1.7-1.2,2.9-1.2c17.5-0.2,35.1-0.4,52.6-0.6c1.3,0,2.1-0.4,2.9-1.4c1.6-1.9,4.2-2.5,6.5-1.6c2,0.8,3.3,2.3,3.4,4.6
		c0.2,2.4-0.8,4.3-3,5.4c-2.6,1.4-5.9,0.5-7.5-2.1c-0.5-0.8-1-1.1-1.9-1.1c-17.2-0.1-34.3-0.2-51.5-0.4c-1,0-1.6,0.3-2.2,0.9
		c-5.7,5.4-11.5,10.9-17.3,16.3c-0.6,0.6-1.3,0.8-2.1,0.8c-21.6,0.7-43.1,1.4-64.7,2.1c-13.2,0.4-26.4,0.8-39.6,1.2
		c-28.7,0.9-57.4,1.9-86.1,2.8c-15.3,0.5-30.7,1-46,1.5c-1,0-1.6,0.5-2.2,1c-2.7,2.2-4.9,4.9-6.9,7.8c-5.1,7.6-5.5,15.6-1.4,23.7
		c2.3,4.5,5.5,8.4,9.5,11.6c0.5,0.4,1.1,0.6,1.8,0.7c18.2,1.3,36.5,1.7,54.8,0.7c17-0.9,33.8-2.9,50.4-6.6
		c12-2.7,23.8-6.1,35.2-10.8c6.6-2.7,13-5.7,19-9.6c1.3-0.8,2.7-0.6,4.1-0.7c16.2-0.8,32.5-1.6,48.7-2.4c5.7-0.3,11.3-0.6,17-0.9
		c0.7,0,1.3-0.1,1.8-0.6c4.3-4.1,8.6-8.2,13-12.2c4.1-3.8,8.2-7.6,12.2-11.5c0.7-0.7,1.5-0.8,2.5-0.8c9.5-0.1,19.1-0.2,28.6-0.2
		c1,0,1.8-0.2,2.5-1c2.1-2.2,6-2.2,8.1,0c2.2,2.2,2.2,5.8-0.1,7.9c-2.3,2.1-6.2,2-8.2-0.4c-0.7-0.8-1.4-1-2.3-1
		c-8.7,0-17.5,0.1-26.2,0.1c-1.6,0-2.8,0.6-3.8,1.6c-2.2,2.1-4.3,4.3-6.5,6.4c-5,4.9-10.1,9.7-15.2,14.5c-1.1,1-2.3,2-3.4,3
		c-0.4,0.3-0.8,0.5-1.3,0.5c-9.5,0.7-19,1.5-28.5,2.2c-8.8,0.7-17.7,1.3-26.5,2c-0.7,0.1-1.4,0.2-2.1,0.5
		c-9.9,5.5-20.5,9.6-31.1,13.4c-11.8,4.3-23.8,7.8-36,10.7c-13.5,3.2-27,5.8-40.8,7.6c-14.8,1.9-29.6,3.5-44.5,3.1
		c-10.5-0.3-20.9-1.3-31.3-3.1c-4.6-0.8-9.1-1.8-13.6-2.7c-1.8-0.3-3.9-0.3-5.5-1.1c-3.3-1.7-6.9-2.2-10.3-3.1
		c-3.2-0.8-6.3-1.9-9.5-2.7c-3.5-0.9-6.9-2.3-10.3-3.6c-4.5-1.8-9.2-3.3-13.5-5.6c-0.7-0.4-1,0-1.4,0.4c-0.4-0.8-1.1-1.2-1.9-1.6
		c-9.4-4.2-18.7-8.8-27.7-13.9c-7.7-4.4-15.1-9.4-22.4-14.4c-5.2-3.6-10.2-7.5-15.2-11.3c-1.6-1.2-2.8-2.8-3-5
		c-0.2-1.9,0.3-2.5,2.2-2.5c18.8,0,37.6,0,56.4,0C59.2,159.3,59.8,159.2,60.3,159.2z M459.8,139.4c-1.8-0.1-3.2,1.1-3.3,2.9
		c-0.1,1.8,1.2,3.2,2.9,3.3c1.9,0.1,3.4-1.1,3.5-2.9C463,140.8,461.8,139.5,459.8,139.4z M438.3,158.4c-1.8,0-3,1.2-3,2.9
		c0,1.6,1.4,2.9,3.1,2.9c1.5,0,3-1.4,3-2.9C441.4,159.7,440,158.4,438.3,158.4z"/>
	<path id="XMLID_61_" class="st1" d="M180.5,34.7c3.7-4.8,7.5-9.4,11.2-14.2c1.2-1.5,2.8-2.9,4.1-4.5c0.8-0.9,1.7-1.8,2.2-2.9
		c0.7-1.4,1.8-1.4,3-1.4c1.2,0,2.4,0,3.7,0c2.3,0,2.4,0,2.4,2.4c0,4.4,0,8.9-0.1,13.3c0,1.2,0.8,1.1,1.5,1.5c-1,0-1.5,0.2-1.5,1.4
		c0,20.3,0,40.6,0,60.9c0,1.2,0.4,1.4,1.5,1.4c3.1-0.1,6.1,0.1,9.2-0.1c1.7-0.1,2.3,0.3,2.3,2.1c-0.1,15.9,0,31.8-0.1,47.7
		c0,1.7,0.5,2,2.1,2c14.2-0.1,28.5,0.1,42.7-0.1c5.3-0.1,9.7-2.5,12.5-7.3c2.6-4.6,0.2-16-3.8-18.8c-2.1-1.4-3.4-3.9-5.1-6
		c-5.7-7.2-11.6-14.2-17.4-21.4c-3.4-4.2-6.7-8.5-10.2-12.6c-4.4-5-8.3-10.5-12.7-15.5c-3.9-4.5-7.4-9.2-11.2-13.7
		c-0.5-0.6-1-1.2-1.6-1.7c-1.7-1.4-1.9-3.9-0.5-5.3c1.2-1.2,4.4-1,5.6,0.5c5.5,6.6,10.9,13.4,16.6,19.9c4.4,5.1,8.4,10.4,12.9,15.4
		c3.8,4.2,7,8.9,10.8,13c4.4,4.8,8.2,10.2,12.5,15c3.8,4.2,7.1,8.8,10.9,13c4.5,4.9,8.3,10.3,12.7,15.3c2.8,3.1,5.3,6.3,7.9,9.5
		c0.6,0.7,1.2,1.2,2.3,1.2c16.9,0,33.9-0.1,50.8,0c1,0,1.6-0.3,2.2-1c5.7-5.9,11.8-11.5,17.7-17.2c4.1-4,8-8.2,12.3-12
		c3.5-3.1,6.7-6.5,10.1-9.8c0.8-0.8,1.6-1.1,2.7-1.1c14.1,0,28.2,0,42.4,0c1.1,0,1.9-0.2,2.7-1c2.5-2.6,6.9-2.9,9.5-0.7
		c2.9,2.3,3.6,5.9,1.9,9c-1.8,3.2-5.4,4.4-9,2.9c-0.8-0.3-1.7-0.5-2.2-1.3c-1-1.9-2.7-1.7-4.4-1.7c-11.7,0-23.5,0.1-35.2-0.1
		c-2.9,0-4.8,1-6.7,2.8c-3,3-5.8,6.1-9,8.9c-4.4,4-8.4,8.5-12.8,12.4c-3.9,3.5-7.4,7.4-11.3,10.9c-2,1.8-3.9,3.6-5.8,5.5
		c-0.5,0.5-1.1,0.5-1.7,0.5c-49,0-97.9,0-146.9,0c-1.6,0-2-0.3-2-2c0.1-16.2,0-32.4,0.1-48.6c0-1.6-0.3-2.1-2-2c-3,0.2-6,0-9,0.1
		c-1.1,0-1.4-0.2-1.4-1.4c0.1-15.8,0-31.7,0.1-47.5c0-1.4-0.4-2.4-1.4-3.4c-2.2-2-4.6-3.8-7.6-4.6c-2.9-0.8-5.4-0.5-7.8,1.2
		c-2.1,1.6-4.1,3.1-5.7,5.3c-6.3,8.6-13.4,16.6-20.1,24.9c-3.8,4.7-7.4,9.5-11.4,14c-4.1,4.6-7.4,9.9-11.7,14.2
		c-8.6,8.7-8.5,18.7-5.5,29.4c1.4,4.9,5.1,7.7,9.2,10.1c4.6,2.7,9.7,3.9,15,3.9c14.2,0,28.5,0,42.7,0c2.6,0,3.9-1.1,4.2-3.8
		c0.1-1.3,0.1-2.6,0.1-3.8c0-7.6,0-15.2,0-22.7c0-2.1,0.9-3.8,2.6-5c1.3-0.9,2.8-1.7,4.2-2.5c0.4,0.5,0.2,1,0.2,1.4
		c0,12.7,0,25.3,0,38c0,3.7-0.3,3.9-4.1,3.9c-34.8,0-69.7,0-104.5,0c-1.1,0-1.8,0.2-1.8,1.4c0.1-0.9-0.3-1.3-1.3-1.3
		c-1.2,0-2.4-0.1-3.6,0c-1.7,0.1-2-0.9-1.7-2.2c0.5-2.1,1.7-4,2.7-5.9c1.5-2.8,3.4-5.4,5.3-7.9c0.8,0,1.1-0.7,1.5-1.2
		c3.8-4.6,7.3-9.4,11.2-13.9c4.7-5.4,8.9-11.3,13.6-16.7c3.5-4,6.5-8.3,10-12.3c4.2-4.7,7.7-9.8,11.9-14.5
		c3.9-4.4,7.3-9.2,11.2-13.7c5.7-6.6,11-13.6,16.6-20.4C176.2,39.9,178.1,37,180.5,34.7z M456.8,107.7c0-2.3-1.5-3.8-3.7-3.9
		c-2-0.1-4.3,2.2-4.3,3.9c0,1.6,2.3,4.1,4.2,3.9C455.3,111.4,456.8,109.9,456.8,107.7z"/>
</g>
</svg>
