<?xml version="1.0" encoding="utf-8"?>
<!-- Generator: Adobe Illustrator 19.0.0, SVG Export Plug-In . SVG Version: 6.00 Build 0)  -->
<svg version="1.1" id="Layer_1" xmlns="http://www.w3.org/2000/svg" xmlns:xlink="http://www.w3.org/1999/xlink" x="0px" y="0px"
	 viewBox="0 0 301.2 136.9" style="enable-background:new 0 0 301.2 136.9;" xml:space="preserve">
<style type="text/css">
	.st0{fill:#C3C2C2;}
	.st1{fill:#242022;}
</style>
<g id="XMLID_1_">
	<path id="XMLID_89_" class="st0" d="M251.3,34.5c0-10,0.1-19.9-0.1-29.9c-0.1-3.4,1.3-4.6,4.5-4.6c8.7,0.1,17.3-0.3,26,0.8
		c8.2,1,15.4,9.2,15.7,18.1c0.3,8.5-6.4,17-14.6,18.7c-3.7,0.8-7.3,0.7-11,0.8c-1,0-2.6-0.6-3,0.8c-0.3,1.1,1.1,1.5,1.8,2.1
		c9,8,18,16.1,26.9,24.2c0.9,0.8,2.6,1.5,1.9,2.9c-0.6,1.4-2.3,0.5-3.5,0.7c-3.4,0.5-5.8-0.8-8.3-3.2c-8.5-8-17.2-15.6-25.9-23.4
		c-0.6-0.5-1.2-1.5-2.1-1.2c-1.2,0.4-0.8,1.7-0.8,2.6c0,6.4,0.1,12.8-0.1,19.2c0,2,0.2,4.5-1.9,5.7c-2.9,1.6-5.6-0.3-5.6-3.7
		C251.3,55,251.3,44.7,251.3,34.5z M270.4,30.8c1.4,0,2.1,0,2.8,0c3.8-0.3,7.7,0.9,11.3-1.3c4.8-3.1,6.8-8.2,5.3-13.6
		c-1.4-5-5.9-8.2-11.6-8.3c-2.7,0-5.4,0-8.1,0c-11.2,0-11.3,0-11.1,11c0.1,3.9-1.8,8.9,0.9,11.5C262.4,32.4,267.2,30.5,270.4,30.8z"
		/>
	<path id="XMLID_88_" class="st0" d="M198.4,34.3c0-10,0.1-19.9-0.1-29.9c-0.1-3.4,1.1-4.5,4.4-4.4c12.2,0.2,24.5,0.1,36.7,0
		c3.2,0,4.2,1.1,4.2,4.2c0.1,3.5-1.9,3.4-4.3,3.4c-9.7-0.1-19.4,0.1-29-0.1c-3.7-0.1-4.6,1.2-4.5,4.6c0.3,4.8,0.2,9.7,0,14.5
		c-0.1,3.1,0.7,4.3,4,4.2c6.4-0.2,12.8,0,19.2-0.1c3.1-0.1,4.3,0.9,4.3,4.2c0.1,3.4-1.7,3.5-4.3,3.5c-6.5-0.1-13.1,0.1-19.6-0.1
		c-2.8-0.1-3.7,0.9-3.6,3.7c0.2,5.3,0.2,10.5,0,15.8c-0.1,3.1,1.1,3.8,4,3.8c10-0.1,19.9,0,29.9-0.1c2.9,0,4,0.8,4,3.8
		c0,3-1,3.9-3.9,3.9c-12.4-0.1-24.8-0.2-37.1,0c-3.5,0-4.3-1.4-4.3-4.6C198.5,54.5,198.4,44.4,198.4,34.3z"/>
	<path id="XMLID_87_" class="st0" d="M24.2,0.8c12.6-0.6,21.1,5.9,23.3,15.4c0.4,1.8,2,4.5-1.5,5c-2.5,0.3-5.4,1-5.8-3.4
		c-0.3-3.7-2.7-6.4-6.1-8.2c-4.8-2.4-9.9-2.7-14.9-1.3c-7,2-10.2,6.4-9.5,12.6c0.6,5,6.1,9.4,12.4,9.8c4.8,0.3,9.6,0.5,14.3,1.7
		c10.1,2.7,16.4,14.6,12.3,24c-2.1,5-6,8.8-11.2,10.5c-9.8,3.2-19.6,3.4-28.8-1.9C2.8,61.9-0.2,56.8,0,50c0.1-2.2,0.8-3.1,3-3
		c2,0.1,3.7-0.4,4.1,2.8c0.8,7.6,5.6,11.6,13.2,11.8c3.3,0.1,6.6,0.2,9.8,0c6.7-0.4,11.9-5.3,12-11c0.1-6.1-5.2-11.7-12-11.9
		c-3.8-0.1-7.6-0.5-11.4-0.9C5.4,36.2-2.6,20.9,4.6,10.1C9.2,3.2,16.1,0.2,24.2,0.8z"/>
	<path id="XMLID_86_" class="st0" d="M134.8,0.8c3.1-0.6,3.5,2.1,4.3,4.1c6.5,15.7,13,31.5,19.4,47.3c0.5,1.1,0.3,3,1.9,2.9
		c1.5,0,1.4-1.9,1.9-3C168.8,36.6,175,21,181.3,5.5c0.5-1.2,0.9-2.4,1.6-3.5c1.5-2.2,4-1.5,5.8-0.9c2.2,0.7,0.8,2.6,0.2,4
		c-8,19.9-16,39.8-24,59.7c-0.9,2.1-1.5,4.3-4.5,4.5c-3.2,0.2-3.6-2.4-4.4-4.4c-8.2-20-16.3-40-24.5-60
		C130.2,1.4,130.8,0.6,134.8,0.8z"/>
	<path id="XMLID_85_" class="st0" d="M73,0.8c4.1,0,8.3,0.1,12.4,0c2.8-0.1,2.8,1.7,2.8,3.6c0,1.9-0.2,3.3-2.7,3.3
		c-2.9,0.1-6.8-1.4-8.6,0.8c-2,2.4-0.6,6.3-0.7,9.5c-0.1,13.2,0.1,26.5-0.1,39.7c0,3.5,1.1,5,4.7,4.6c1.3-0.1,2.6,0.1,3.8,0
		c2.5-0.2,3.6,0.6,3.5,3.3c-0.1,2.5-1,3.6-3.5,3.6c-8-0.1-15.9-0.1-23.9,0c-2.7,0-3.3-1.3-3.4-3.7c0-2.4,0.9-3.1,3.3-3.2
		c8.7-0.3,8.7-0.4,8.7-9c0-13.8-0.1-27.6,0.1-41.4c0-3.4-1.1-4.7-4.4-4.2c-1.3,0.2-2.6-0.1-3.8,0c-2.7,0.2-3.8-0.9-3.8-3.7
		c0-2.8,1.3-3.3,3.7-3.2C65,0.8,69,0.8,73,0.8z"/>
	<path id="XMLID_82_" class="st1" d="M267.6,112.4c0.1,4.2-0.5,8.2-1.9,12.1c-2.8,7.9-8.9,12.3-17.1,12.3c-8.3,0-14.3-4.1-17.1-12.1
		c-3-8.7-3-17.6,0.5-26.2c3-7.3,8.7-11,16.6-11.1c7.5-0.1,13.5,4.1,16.5,11.3C267,103.1,267.8,107.6,267.6,112.4z M235.1,112.3
		c-0.3,3.9,0.5,7.7,2,11.3c2.1,4.9,5.9,7.6,11.3,7.7c5.3,0,9.4-2.5,11.5-7.4c3.3-7.7,3.3-15.6-0.1-23.2c-2.1-4.8-5.9-7.7-11.3-7.6
		c-5.5,0-9.1,3-11.2,7.8C235.6,104.4,234.8,108.3,235.1,112.3z"/>
	<path id="XMLID_79_" class="st1" d="M185.1,113c0-5.8,0.7-10.7,2.9-15.2c3.3-6.8,8.7-10.3,16.2-10.3c7.6,0,13.1,3.6,16.1,10.5
		c4,9.1,4,18.5,0.4,27.8c-2.9,7.4-9,11.3-16.9,11.2c-7.8-0.1-13.5-4-16.5-11.3C185.7,121.3,185.2,116.8,185.1,113z M190.7,112.4
		c-0.4,3.8,0.5,7.7,2.1,11.4c2.2,4.9,6,7.5,11.4,7.5c5.1,0,9.1-2.4,11.2-7.1c3.5-7.9,3.5-16-0.1-23.9c-2.1-4.6-5.9-7.3-11.1-7.3
		c-5.2,0-8.8,2.7-11.1,7.3C191.2,104,190.4,108,190.7,112.4z"/>
	<path id="XMLID_78_" class="st0" d="M95.8,34.9c0-9.9,0-19.9,0-29.8c0-2.4-0.1-4.4,3.4-4.4c3.4,0,3.6,1.7,3.5,4.2
		c-0.1,17.3,0.1,34.7-0.1,52c-0.1,4.4,1.4,5.6,5.6,5.4c9.7-0.3,19.3,0,29-0.1c2.5,0,3.9,0.3,4,3.4c0.1,3.4-1.6,3.6-4.2,3.6
		c-12.4-0.1-24.7-0.1-37.1,0c-3.1,0-4.2-0.8-4.1-4.1C95.9,55,95.8,45,95.8,34.9z"/>
	<path id="XMLID_77_" class="st1" d="M150.6,125.1c2.6,2.7,5.3,4.6,8.5,5.6c4.3,1.4,7.9,0.2,10.8-3c2.7-2.9,3.6-6.5,1.9-10.3
		c-1.8-4.1-5.1-6.5-9.7-6.5c-4.1,0-8.1,0.9-12.1,4.2c0-9.1,0-17.6,0-26.1c0-1.5,1-1.8,2.3-1.8c6.8,0,13.7,0.1,20.5,0
		c2.3,0,2.4,1.1,2.5,2.9c0,2-0.6,2.8-2.7,2.8c-4.7-0.1-9.4,0.1-14.1-0.1c-2.4-0.1-3.4,0.7-3.1,3.1c0.1,1.1,0,2.3,0,3.4
		c0,2.1-0.7,4.8,0.4,6.2c1.3,1.8,3.8-0.4,5.8-0.4c6.8-0.3,13.3,4.2,15.6,11c2.2,6.7-0.3,14.2-6.1,18.1c-5.9,3.9-13.9,3.5-19.1-1
		C149.8,131.2,149.6,130.5,150.6,125.1z"/>
	<path id="XMLID_76_" class="st1" d="M301.2,112.8c0.4,2.1-0.4,3.3-2.7,2.9c-0.1,0-0.3,0-0.4,0c-7.3,0.2-7.4,0.2-7.4,7.3
		c0,2.3-0.2,3.6-3.1,3.6c-2.8,0-2.9-1.5-2.8-3.5c0-0.1,0-0.3,0-0.4c-0.1-6.9-0.1-6.9-7-7c-1.9,0-3.9,0.5-4-2.8
		c-0.1-3.4,1.9-3.2,4.1-3.1c0.9,0,1.7-0.1,2.6,0c3.7,0.6,4.8-1.1,4.3-4.5c-0.2-1.4,0-2.8,0-4.3c0-2.1,1.4-2.1,2.9-2.1
		c1.4,0,3-0.2,2.9,2c0,0.3,0,0.6,0,0.9c0.2,2.5-1.1,5.7,0.7,7.4c1.7,1.7,4.9,0.5,7.4,0.5C300.9,109.8,301.4,110.8,301.2,112.8z"/>
</g>
</svg>
