<?xml version="1.0" encoding="utf-8"?>
<!-- Generator: Adobe Illustrator 19.0.0, SVG Export Plug-In . SVG Version: 6.00 Build 0)  -->
<svg version="1.1" id="Layer_1" xmlns="http://www.w3.org/2000/svg" xmlns:xlink="http://www.w3.org/1999/xlink" x="0px" y="0px"
	 viewBox="0 0 524.9 112.3" style="enable-background:new 0 0 524.9 112.3;" xml:space="preserve">
<g id="UW">
	<path d="M67.7,89.3c2.9-9.4,5.7-18.8,8.6-28.1c1.1-3.7,2.3-7.3,3.3-11c0.4-1.4,1-2,2.6-2c5.4,0,8,0,12.3,0c-0.3,1-0.4,1.8-0.7,2.5
		c-6.6,19.5-13.2,39-19.7,58.5c-0.5,1.5-1.2,2.2-2.8,2.1c-2.5-0.1-5-0.2-7.5,0c-2,0.2-2.8-0.6-3.3-2.4c-3.8-11.4-7.7-22.7-11.6-34
		c-0.4-1.1-0.8-2.3-1.8-3.4c-0.3,0.9-0.7,1.8-1,2.7c-4,11.6-8,23.1-11.9,34.8c-0.6,1.9-1.5,2.5-3.4,2.3c-2.4-0.2-4.8-0.2-7.2,0
		c-1.8,0.1-2.5-0.6-3-2.2c-6-17.9-12.1-35.8-18.1-53.7c-0.8-2.3-1.5-4.6-2.4-7.2c4.8,0,9.3-0.1,13.7,0.1c0.6,0,1.5,1.3,1.8,2.2
		c3.7,12,7.4,24.1,11.1,36.1c0.3,0.9,0.6,1.7,1.1,3.3c0.5-1.4,0.9-2.2,1.2-3c4-12.1,8-24.2,11.9-36.3c0.6-1.8,1.4-2.6,3.3-2.4
		c2.4,0.2,4.8,0.2,7.2,0c2-0.2,2.5,0.9,3,2.5c4.1,12.5,8.2,25,12.3,37.5c0.2,0.5,0.3,0.9,0.5,1.4C67.4,89.3,67.5,89.3,67.7,89.3z"/>
	<path d="M289.9,111.1c-4.8,0-9.1,0-13.6,0c0-20.7,0-41.4,0-62.4c0.9,0,1.7-0.1,2.6-0.1c8.8,0,17.7-0.1,26.5,0
		c2.3,0,4.7,0.3,6.9,0.7c9.1,2,14.6,8,15.7,16.8c1.2,9.9-2.7,17.6-11.1,21.7c-0.5,0.3-1,0.5-1.9,1c5,7.3,9.9,14.6,15.1,22.3
		c-5.5,0-10.5,0.1-15.5-0.1c-0.6,0-1.3-0.9-1.8-1.5c-3.7-5.5-7.5-11-11.1-16.6c-0.9-1.3-1.8-2-3.4-1.8c-2.1,0.1-4.2,0.1-6.2,0
		c-1.8-0.1-2.3,0.6-2.2,2.3c0.1,4.9,0,9.8,0,14.7C289.9,109.1,289.9,110,289.9,111.1z M290,78.5c5.9,0,11.5,0.3,17.1-0.1
		c3.4-0.2,5.9-2.5,6.8-6.1c1.4-5.6-1.6-10.3-7.5-10.9c-4.9-0.5-10-0.3-15-0.2c-0.5,0-1.4,0.8-1.4,1.2C289.9,67.8,290,73.2,290,78.5z
		"/>
	<path d="M421.6,47.5c18.9,0.1,33.2,14.1,33.1,32.4c-0.1,18.4-14.7,32.5-33.5,32.4c-18.9-0.2-33-14.1-32.9-32.6
		C388.4,61.4,402.9,47.4,421.6,47.5z M421.5,99.4c10.6,0,18.6-8.2,18.7-19.3c0.1-11.1-8.1-19.8-18.8-19.9
		c-10.5-0.1-18.6,8.3-18.7,19.3C402.7,90.9,410.8,99.4,421.5,99.4z"/>
	<path d="M491.7,47.5c18.9,0,33.2,14,33.1,32.4c-0.1,18.4-14.7,32.5-33.5,32.4c-18.9-0.1-33-14-32.9-32.5
		C458.5,61.5,472.9,47.5,491.7,47.5z M491.4,99.4c10.6,0.2,18.7-7.9,19-19c0.2-11.1-7.8-19.9-18.5-20.1c-10.3-0.2-18.7,8-18.9,18.6
		C472.7,90.6,480.5,99.2,491.4,99.4z"/>
	<path d="M260.9,48.9c0,3.5-0.1,6.8,0,10.2c0,2-1.2,1.8-2.5,1.8c-9.2,0-18.3,0-27.5,0c-3.4,0-3.4,0-3.4,3.4c0,2.9,0,5.8,0,9
		c1.1,0.1,2,0.2,2.9,0.2c7.8,0,15.7,0.1,23.5-0.1c2.7-0.1,3.3,0.8,3.1,3.3c-0.2,3,0,5.9,0,9.2c-9.9,0-19.4,0-29.2,0
		c0,4.4,0,8.6,0,13c11.2,0,22.2,0,33.5,0c0,4.2,0,8.1,0,12.3c-0.7,0.1-1.5,0.2-2.2,0.2c-14.2,0-28.5,0-42.7,0.1
		c-2,0-2.5-0.6-2.5-2.5c0.1-19.2,0-38.5,0-57.7c0-1.3-0.1-2.4,1.9-2.4c14.7,0.1,29.3,0,44,0.1C260,48.7,260.3,48.8,260.9,48.9z"/>
	<path d="M155.6,111.2c-4.5,0-8.7,0.1-13-0.1c-0.6,0-1.5-0.9-1.8-1.6c-1.5-3.4-2.9-6.9-4.3-10.4c-0.5-1.5-1.3-2.1-2.9-2
		c-7.4,0.1-14.8,0.1-22.2,0c-1.6,0-2.4,0.6-2.9,2.1c-1.3,3.4-2.8,6.8-4.1,10.2c-0.5,1.4-1.3,1.9-2.8,1.9c-3.9-0.1-7.8,0-12,0
		c0.4-1.1,0.6-1.9,0.9-2.6c8.3-19.5,16.5-38.9,24.8-58.4c0.6-1.5,1.4-2.2,3.1-2.1c3,0.1,6-0.1,9,0.1c0.8,0,1.9,0.7,2.2,1.4
		c8.6,20.1,17.1,40.1,25.6,60.2C155.4,110.1,155.4,110.4,155.6,111.2z M122.6,64.9c-2.8,6.9-5.4,13.3-8.1,19.7c5.5,0,10.6,0,16.1,0
		C128,78.1,125.4,71.8,122.6,64.9z"/>
	<path d="M184.6,111.2c-4.4,0-8.5,0.1-12.5-0.1c-0.5,0-1.3-1.3-1.3-2c-0.1-6.1-0.1-12.2-0.1-18.2c0-8.7-0.1-17.5,0.1-26.2
		c0-2.4-0.5-3.4-3.1-3.3c-4.5,0.2-9,0-13.5,0.1c-1.9,0-2.5-0.6-2.4-2.5c0.1-3.3,0-6.6,0-10.2c1-0.1,1.8-0.2,2.7-0.2
		c15.5,0,31,0,46.5,0c2,0,2.9,0.5,2.7,2.6c-0.2,2.6-0.1,5.2,0,7.7c0.1,1.8-0.5,2.5-2.4,2.5c-4.7-0.1-9.3,0.1-14-0.1
		c-2.1-0.1-2.7,0.7-2.6,2.7c0.1,14.7,0,29.3,0,44C184.6,109,184.6,110,184.6,111.2z"/>
	<path d="M357,48.6c0,1.3,0,2.3,0,3.3c0,14.6,0.1,29.1-0.1,43.7c0,2.4,0.7,2.9,3,2.9c7.9-0.1,15.8,0,23.7-0.1c2,0,2.9,0.4,2.7,2.6
		c-0.2,3.2,0,6.5,0,10c-1,0.1-1.8,0.2-2.6,0.2c-12.7,0-25.3,0-38,0c-1.9,0-2.6-0.5-2.6-2.5c0.1-19.2,0.1-38.5,0-57.7
		c0-1.8,0.4-2.5,2.3-2.5C349.2,48.7,352.9,48.6,357,48.6z"/>
	<path d="M96,16.9c0-4.3,0-8.6,0-12.9c0-3.3,2.4-4.8,5.5-3.4c0.4,0.2,0.8,1,0.8,1.6c0.1,8.6,0.1,17.2,0,25.7c0,0.5-0.6,1.4-0.9,1.4
		c-2.2,0.1-4.3,0.7-6-1.8c-3.2-4.6-6.7-8.9-10.1-13.4c-0.5-0.6-1-1.3-2-2.4c-0.1,1.4-0.2,2.2-0.2,2.9c0,4-0.1,8,0,12
		c0.1,2-0.4,2.9-2.6,2.8c-4.4-0.2-3.8,0.4-3.8-3.9c0-7.5,0.1-15-0.1-22.5c0-2.1,0.7-2.6,2.7-2.7c2.5-0.1,4,0.7,5.4,2.7
		c2.9,4.2,6.1,8.1,9.2,12.2c0.5,0.6,1,1.2,1.5,1.8C95.6,17,95.8,17,96,16.9z"/>
	<path d="M440.4,29.9c-8.8-0.1-15.3-6.6-15.1-15.2c0.2-8.5,6.9-14.8,15.7-14.7c8.6,0.1,15.1,6.6,15,15.1
		C455.9,23.6,449.1,30,440.4,29.9z M449.2,15c0-5.1-3.8-9.1-8.7-9.1c-4.8,0-8.5,3.9-8.5,8.9c0,5.1,3.7,9,8.7,9
		C445.5,23.9,449.2,20.1,449.2,15z"/>
	<path d="M242.5,19.5c2.2,3.3,4.4,6.5,6.5,9.6c-4.5,1.6-7.1,0.8-9.4-2.7c-0.7-1-1.5-2-2-3.1c-1.3-2.9-3.5-3.4-6.7-2.5
		c0,2.1-0.1,4.3,0,6.5c0.1,1.8-0.4,2.7-2.4,2.5c-0.9-0.1-1.9,0.1-2.7-0.1c-0.5-0.1-1.3-0.9-1.3-1.3c-0.1-9.1-0.1-18.1-0.1-27.9
		c6.1,0.3,11.7-0.8,17.5,0c3.5,0.5,5.9,4.4,6.4,7.9c0.6,3.8-0.1,7.3-3.6,9.7C244.1,18.6,243.5,18.9,242.5,19.5z M235.2,14.4
		c0.8,0,1.7,0,2.5,0c2.6-0.2,4.2-1.7,4.2-4c0-2.3-1.5-3.8-4.2-4c-1.2-0.1-2.3,0-3.5,0c-3.4,0-3.4,0-3.4,3.5
		C230.8,14.4,230.8,14.4,235.2,14.4z"/>
	<path d="M192.7,6.2c0,2.1,0,3.7,0,5.7c3.4,0,6.6,0,9.8,0c3.6,0,3.6,0,3.5,3.5c0,0.7-0.1,1.3-0.1,2.2c-4.4,0-8.7,0-12.8,0
		c-0.2,0.5-0.4,0.7-0.5,0.9c-0.5,5.1-0.5,5.1,4.5,5.1c3,0,6,0.1,9,0c2.2-0.1,2,1.3,1.9,2.6c-0.1,1.3,0.8,3.2-1.8,3.2
		c-6.2,0-12.3,0-18.5-0.1c-0.6,0-1.6-1-1.6-1.5c-0.1-8.6-0.1-17.2,0-25.7c0-0.5,1-1.5,1.6-1.6c6.2-0.1,12.3-0.1,18.5-0.1
		c2.6,0,1.5,2,1.7,3.3c0.2,1.3,0.2,2.5-1.8,2.5C201.7,6.2,197.3,6.2,192.7,6.2z"/>
	<path d="M59.8,0.6c0,6.6,0.5,13.1-0.1,19.4c-0.6,6.8-5.5,10-13.3,9.8c-6.5-0.2-10.9-3.9-11.3-10.3c-0.4-5.8-0.2-11.6-0.1-17.5
		c0-0.5,1-1.2,1.6-1.5c0.6-0.3,1.5,0,2.2-0.1c2-0.3,2.6,0.6,2.5,2.5c-0.1,4.8-0.1,9.7,0,14.5c0.1,4,2.2,6.3,5.8,6.4
		c3.8,0.1,6.1-2,6.2-5.9c0.2-4.7,0.1-9.3,0.1-14c0-3.5,0-3.5,3.5-3.5C58,0.5,58.8,0.6,59.8,0.6z"/>
	<path d="M262.8,25.2c1.3-1.6,2.4-3,3.7-4.5c0.8,0.5,1.4,1,2.2,1.3c2,0.8,4,1.7,6.1,2c1.8,0.3,3.9,0,4.4-2.3
		c0.4-2.2-1.6-2.7-3.1-3.2c-2.3-0.8-4.6-1.4-6.9-2.2c-3.2-1.2-5-3.4-5.1-6.9c-0.1-3.6,1.2-6.3,4.4-8.1c4.1-2.2,11.7-1.5,15.2,1.6
		c0.4,0.4,0.6,1.4,0.4,2c-0.2,0.8-0.9,1.4-1.3,2.1c-0.7,1.3-1.5,1.3-2.8,0.7c-2-0.9-4.2-1.6-6.4-1.7c-0.9-0.1-2,1.3-3,2
		c0.7,1,1.3,2.4,2.3,2.8c2.2,1,4.6,1.4,6.9,2.2c4.4,1.6,6.4,4.3,6.1,8.3c-0.3,4.2-2.7,7.1-7.2,8.1C272.7,30.7,267.6,29.1,262.8,25.2
		z"/>
	<path d="M489.4,12.3c0,2.1,0,3.9,0,5.9c-4.5,0-8.8,0-13.6,0c0,3-0.2,5.8,0.1,8.6c0.2,2.7-1.2,2.7-3.2,2.7c-2,0-3.5,0.1-3.4-2.8
		c0.2-7.9,0.1-15.8,0-23.7c0-2,0.6-2.6,2.6-2.6c5.5,0.1,11,0.2,16.5,0c2.4-0.1,3.4,0.6,3,3.1c-0.1,0.8,0,1.6,0,2.8
		c-4.2,0-8.2,0-12.1,0c-3.1,0-4.7,2.4-3.3,5.2c0.2,0.4,1.2,0.7,1.9,0.7C481.6,12.3,485.3,12.3,489.4,12.3z"/>
	<path d="M142.1,0.5c2.2,0,4-0.2,5.7,0.1c0.8,0.1,1.7,1.2,2.1,2c1.9,4.8,3.6,9.7,5.4,14.5c0.3,0.8,0.6,1.7,1.2,3.1
		c0.5-1.1,0.9-1.6,1.1-2.3c1.8-4.8,3.7-9.5,5.2-14.3c0.8-2.4,1.9-3.5,4.4-3.1c1,0.2,2.1,0,3.5,0c-0.3,1-0.5,1.7-0.7,2.4
		c-3.3,8.2-6.6,16.3-9.7,24.6c-0.8,2.2-2.3,2.1-4.1,2.2c-1.9,0.1-2.8-0.5-3.5-2.3c-3.1-8.1-6.4-16.1-9.6-24.1
		C142.8,2.5,142.6,1.8,142.1,0.5z"/>
	<path d="M360.9,0.5c2.7,0,4.6-0.2,6.4,0.1c0.8,0.1,1.7,1,2.1,1.7c1.9,3,3.7,6.1,5.8,9.6c1.8-2.9,3.5-5.4,4.8-8
		c1.3-2.7,3.1-3.9,6.1-3.4c0.9,0.1,1.8,0,3.1,0c-0.4,0.9-0.6,1.5-0.9,2c-1.7,2.7-3.2,5.5-5.1,8c-3.8,4.7-5.4,9.9-4.7,16
		c0.1,0.9-0.3,2.7-0.7,2.8c-1.7,0.3-3.4,0.1-5.2-0.1c-0.2,0-0.6-1.2-0.5-1.7c1.2-7.1-1.6-12.9-5.7-18.4
		C364.4,6.5,362.9,3.7,360.9,0.5z"/>
	<path d="M336.5,0.5c3.2,0,6.5,0.1,9.7,0c2.5-0.1,2.1,1.5,2.1,3c0,1.4,0.5,3.2-2,3c-0.2,0-0.5,0-0.7,0c-5.9,0-5.9,0-5.9,6.1
		c0,4.8-0.1,9.6,0,14.5c0,1.8-0.4,2.7-2.4,2.5c-0.7-0.1-1.3-0.1-2,0c-1.7,0.2-2.1-0.6-2.1-2.2c0.1-6.1-0.1-12.1,0.1-18.2
		c0-2.1-0.6-2.9-2.7-2.7c-1.1,0.1-2.2-0.1-3.2,0c-2.2,0.3-3-0.5-3-2.8c0-2.5,0.7-3.4,3.2-3.2C330.5,0.7,333.5,0.5,336.5,0.5z"/>
	<path d="M302.3,1c0.5-0.3,0.6-0.4,0.7-0.4c5.8-0.7,5.8-0.6,5.8,5.1c0,6.9-0.1,13.8,0.1,20.7c0.1,2.6-0.8,3.5-3.3,3.1
		c-0.7-0.1-1.4,0.1-2-0.1c-0.5-0.2-1.2-0.7-1.2-1.2C302.3,19.1,302.3,10,302.3,1z"/>
	<path d="M126.6,15.3c0,3.9-0.1,7.8,0,11.7c0,1.8-0.4,2.5-2.3,2.5c-4.8-0.1-4.1,0.4-4.2-4.1c0-7.4,0-14.8,0-22.2
		c0-2,0.4-2.8,2.6-2.8c4.4,0.2,3.9-0.3,3.9,3.9C126.6,8,126.6,11.6,126.6,15.3z"/>
</g>
</svg>
